<mxfile host="65bd71144e">
    <diagram id="evXJzl7kGxZzieM-9R_S" name="Page-1">
        <mxGraphModel dx="1146" dy="800" grid="1" gridSize="10" guides="1" tooltips="1" connect="1" arrows="1" fold="1" page="1" pageScale="1" pageWidth="827" pageHeight="1169" background="#BFBFBF" math="0" shadow="0">
            <root>
                <mxCell id="0"/>
                <mxCell id="1" parent="0"/>
                <mxCell id="53" value="" style="whiteSpace=wrap;html=1;" vertex="1" parent="1">
                    <mxGeometry x="169" y="50" width="351" height="590" as="geometry"/>
                </mxCell>
                <mxCell id="54" style="edgeStyle=none;html=1;exitX=0.5;exitY=0.5;exitDx=0;exitDy=0;exitPerimeter=0;entryX=0;entryY=0.5;entryDx=0;entryDy=0;" edge="1" parent="1" source="60" target="64">
                    <mxGeometry relative="1" as="geometry">
                        <Array as="points"/>
                    </mxGeometry>
                </mxCell>
                <mxCell id="55" value="Remplit" style="edgeLabel;html=1;align=center;verticalAlign=middle;resizable=0;points=[];" vertex="1" connectable="0" parent="54">
                    <mxGeometry x="0.3989" y="2" relative="1" as="geometry">
                        <mxPoint as="offset"/>
                    </mxGeometry>
                </mxCell>
                <mxCell id="56" style="edgeStyle=none;html=1;exitX=0.5;exitY=0.5;exitDx=0;exitDy=0;exitPerimeter=0;entryX=0;entryY=0.5;entryDx=0;entryDy=0;" edge="1" parent="1" source="60" target="67">
                    <mxGeometry relative="1" as="geometry">
                        <Array as="points">
                            <mxPoint x="170" y="380"/>
                        </Array>
                    </mxGeometry>
                </mxCell>
                <mxCell id="57" value="Action" style="edgeLabel;html=1;align=center;verticalAlign=middle;resizable=0;points=[];" vertex="1" connectable="0" parent="56">
                    <mxGeometry x="0.2281" y="-1" relative="1" as="geometry">
                        <mxPoint x="34" as="offset"/>
                    </mxGeometry>
                </mxCell>
                <mxCell id="60" value="Student" style="shape=umlActor;verticalLabelPosition=bottom;verticalAlign=top;html=1;outlineConnect=0;" vertex="1" parent="1">
                    <mxGeometry x="30" y="230" width="60" height="120" as="geometry"/>
                </mxCell>
                <mxCell id="61" value="&lt;font style=&quot;font-size: 25px&quot;&gt;&lt;font style=&quot;font-size: 25px&quot;&gt;&lt;u&gt;&lt;b&gt;ToDo List&lt;/b&gt;&lt;/u&gt;&lt;/font&gt;&lt;br&gt;&lt;/font&gt;" style="text;html=1;strokeColor=none;fillColor=none;align=center;verticalAlign=middle;whiteSpace=wrap;rounded=0;" vertex="1" parent="1">
                    <mxGeometry x="219.25" y="60" width="250.5" height="30" as="geometry"/>
                </mxCell>
                <mxCell id="62" style="edgeStyle=none;html=1;exitX=1;exitY=0.5;exitDx=0;exitDy=0;entryX=0;entryY=0.425;entryDx=0;entryDy=0;entryPerimeter=0;" edge="1" parent="1" source="64" target="76">
                    <mxGeometry relative="1" as="geometry">
                        <Array as="points">
                            <mxPoint x="520" y="290"/>
                        </Array>
                    </mxGeometry>
                </mxCell>
                <mxCell id="90" value="Post" style="edgeLabel;html=1;align=center;verticalAlign=middle;resizable=0;points=[];" vertex="1" connectable="0" parent="62">
                    <mxGeometry x="-0.5086" y="-1" relative="1" as="geometry">
                        <mxPoint x="1" as="offset"/>
                    </mxGeometry>
                </mxCell>
                <mxCell id="64" value="Add task&lt;br&gt;(himself only)" style="ellipse;whiteSpace=wrap;html=1;" vertex="1" parent="1">
                    <mxGeometry x="284.5" y="250" width="120" height="80" as="geometry"/>
                </mxCell>
                <mxCell id="65" style="edgeStyle=none;html=1;exitX=1;exitY=0.5;exitDx=0;exitDy=0;entryX=0;entryY=0.5;entryDx=0;entryDy=0;" edge="1" parent="1" source="67" target="76">
                    <mxGeometry relative="1" as="geometry">
                        <Array as="points">
                            <mxPoint x="520" y="380"/>
                        </Array>
                    </mxGeometry>
                </mxCell>
                <mxCell id="89" value="Request" style="edgeLabel;html=1;align=center;verticalAlign=middle;resizable=0;points=[];" vertex="1" connectable="0" parent="65">
                    <mxGeometry x="-0.6477" relative="1" as="geometry">
                        <mxPoint x="21" as="offset"/>
                    </mxGeometry>
                </mxCell>
                <mxCell id="67" value="Delete task" style="ellipse;whiteSpace=wrap;html=1;" vertex="1" parent="1">
                    <mxGeometry x="284.5" y="340" width="120" height="80" as="geometry"/>
                </mxCell>
                <mxCell id="71" value="DB" style="shape=cylinder3;whiteSpace=wrap;html=1;boundedLbl=1;backgroundOutline=1;size=15;" vertex="1" parent="1">
                    <mxGeometry x="740" y="290" width="60" height="80" as="geometry"/>
                </mxCell>
                <mxCell id="72" style="edgeStyle=none;html=1;exitX=0;exitY=0.25;exitDx=0;exitDy=0;entryX=1;entryY=0.5;entryDx=0;entryDy=0;" edge="1" parent="1" source="76" target="80">
                    <mxGeometry relative="1" as="geometry">
                        <Array as="points">
                            <mxPoint x="520" y="190"/>
                        </Array>
                    </mxGeometry>
                </mxCell>
                <mxCell id="91" value="Hydrate" style="edgeLabel;html=1;align=center;verticalAlign=middle;resizable=0;points=[];" vertex="1" connectable="0" parent="72">
                    <mxGeometry x="0.6423" y="-2" relative="1" as="geometry">
                        <mxPoint x="10" as="offset"/>
                    </mxGeometry>
                </mxCell>
                <mxCell id="76" value="Back" style="whiteSpace=wrap;html=1;aspect=fixed;" vertex="1" parent="1">
                    <mxGeometry x="590" y="290" width="80" height="80" as="geometry"/>
                </mxCell>
                <mxCell id="77" value="" style="endArrow=classic;startArrow=classic;html=1;entryX=0;entryY=0.5;entryDx=0;entryDy=0;entryPerimeter=0;exitX=1;exitY=0.5;exitDx=0;exitDy=0;" edge="1" parent="1" source="76" target="71">
                    <mxGeometry width="50" height="50" relative="1" as="geometry">
                        <mxPoint x="715" y="480" as="sourcePoint"/>
                        <mxPoint x="765" y="430" as="targetPoint"/>
                    </mxGeometry>
                </mxCell>
                <mxCell id="78" style="edgeStyle=none;html=1;exitX=0;exitY=0.5;exitDx=0;exitDy=0;entryX=0.75;entryY=0.1;entryDx=0;entryDy=0;entryPerimeter=0;" edge="1" parent="1" source="80" target="60">
                    <mxGeometry relative="1" as="geometry">
                        <Array as="points">
                            <mxPoint x="170" y="190"/>
                        </Array>
                    </mxGeometry>
                </mxCell>
                <mxCell id="79" value="Render" style="edgeLabel;html=1;align=center;verticalAlign=middle;resizable=0;points=[];spacing=7;" vertex="1" connectable="0" parent="78">
                    <mxGeometry x="-0.4744" y="3" relative="1" as="geometry">
                        <mxPoint x="1" y="-6" as="offset"/>
                    </mxGeometry>
                </mxCell>
                <mxCell id="80" value="tasks list" style="ellipse;whiteSpace=wrap;html=1;" vertex="1" parent="1">
                    <mxGeometry x="284.5" y="150" width="120" height="80" as="geometry"/>
                </mxCell>
                <mxCell id="88" style="edgeStyle=none;html=1;exitX=1;exitY=0.5;exitDx=0;exitDy=0;entryX=0.5;entryY=1;entryDx=0;entryDy=0;" edge="1" parent="1" source="83" target="76">
                    <mxGeometry relative="1" as="geometry">
                        <Array as="points">
                            <mxPoint x="520" y="540"/>
                        </Array>
                    </mxGeometry>
                </mxCell>
                <mxCell id="92" value="Post" style="edgeLabel;html=1;align=center;verticalAlign=middle;resizable=0;points=[];" vertex="1" connectable="0" parent="88">
                    <mxGeometry x="-0.718" relative="1" as="geometry">
                        <mxPoint as="offset"/>
                    </mxGeometry>
                </mxCell>
                <mxCell id="83" value="Add task + Assign" style="ellipse;whiteSpace=wrap;html=1;" vertex="1" parent="1">
                    <mxGeometry x="276.75" y="500" width="135.5" height="80" as="geometry"/>
                </mxCell>
                <mxCell id="87" style="edgeStyle=none;html=1;exitX=0.5;exitY=0.5;exitDx=0;exitDy=0;exitPerimeter=0;entryX=0;entryY=0.5;entryDx=0;entryDy=0;" edge="1" parent="1" source="84" target="83">
                    <mxGeometry relative="1" as="geometry"/>
                </mxCell>
                <mxCell id="93" value="Remplit" style="edgeLabel;html=1;align=center;verticalAlign=middle;resizable=0;points=[];" vertex="1" connectable="0" parent="87">
                    <mxGeometry x="0.4906" relative="1" as="geometry">
                        <mxPoint as="offset"/>
                    </mxGeometry>
                </mxCell>
                <mxCell id="84" value="Teacher" style="shape=umlActor;verticalLabelPosition=bottom;verticalAlign=top;html=1;outlineConnect=0;" vertex="1" parent="1">
                    <mxGeometry x="20" y="480" width="60" height="120" as="geometry"/>
                </mxCell>
            </root>
        </mxGraphModel>
    </diagram>
</mxfile>